<svg xmlns="http://www.w3.org/2000/svg" width="414.5" height="400" version="1.0"><path d="M230 0v160.375L184 187V82c-33.649 19.481-67.321 38.928-100.969 58.406A22.405 22.405 0 0 1 68.75 145.5c-12.42 0-22.5-10.08-22.5-22.5s10.08-22.5 22.5-22.5c8.191 0 15.377 4.39 19.313 10.938l117.874-68.282v-26.25l-92.156 53.438C101.757 60.159 86.231 54 69.25 54c-38.088 0-69 30.912-69 69s30.912 69 69 69c18.131 0 31.869-9.144 46.938-18.469L139 160.22v52.844L0 293.5 184 400V239.25l46-26.844V317.75c34.24-19.863 68.52-39.662 102.719-59.594A22.338 22.338 0 0 1 345 254.5c12.42 0 22.5 10.08 22.5 22.5s-10.08 22.5-22.5 22.5c-8.216 0-15.416-4.418-19.344-11L208 356.969V383l92.656-53.594C312.722 339.746 328.376 346 345.5 346c38.088 0 69-30.912 69-69s-30.912-69-69-69c-17.346 0-30.935 8.17-45.313 17L275 239.594v-52.625L414 106.5Zm45 78.5 48 28-48 28zm-136 187v56l-48-28z" style="fill:#000;stroke:none"/></svg>